<svg width="2009" height="695" viewBox="0 0 2009 695" fill="none" xmlns="http://www.w3.org/2000/svg">
<path d="M1942 380C1942 423.057 1915.99 464.234 1868.59 501.829C1821.2 539.415 1752.56 573.308 1667.66 601.791C1497.86 658.752 1263.22 694 1004 694C744.78 694 510.143 658.752 340.345 601.791C255.441 573.308 186.803 539.415 139.413 501.829C92.0114 464.234 66 423.057 66 380C66 336.943 92.0114 295.766 139.413 258.171C186.803 220.585 255.441 186.692 340.345 158.209C510.143 101.248 744.78 66 1004 66C1263.22 66 1497.86 101.248 1667.66 158.209C1752.56 186.692 1821.2 220.585 1868.59 258.171C1915.99 295.766 1942 336.943 1942 380Z" stroke="url(#paint0_linear_705_1376)" stroke-width="2"/>
<path d="M81 380C81 420.972 106.575 460.174 153.221 495.98C199.853 531.776 267.393 564.055 350.942 591.181C518.029 645.43 748.92 679 1004 679C1259.08 679 1489.97 645.43 1657.06 591.181C1740.61 564.055 1808.15 531.776 1854.78 495.98C1901.42 460.174 1927 420.972 1927 380C1927 339.028 1901.42 299.826 1854.78 264.02C1808.15 228.224 1740.61 195.945 1657.06 168.819C1489.97 114.57 1259.08 81 1004 81C748.92 81 518.029 114.57 350.942 168.819C267.393 195.945 199.853 228.224 153.221 264.02C106.575 299.826 81 339.028 81 380Z" stroke="url(#paint1_linear_705_1376)" stroke-width="2"/>
<rect x="304.5" y="77.5" width="159.24" height="159.24" rx="20.5" fill="#3D3C3C" fill-opacity="0.2"/>
<rect x="304.5" y="77.5" width="159.24" height="159.24" rx="20.5" stroke="url(#paint2_linear_705_1376)"/>
<rect x="1848.5" y="219.5" width="159.24" height="159.24" rx="20.5" fill="#211451" fill-opacity="0.3"/>
<rect x="1848.5" y="219.5" width="159.24" height="159.24" rx="20.5" stroke="url(#paint3_linear_705_1376)"/>
<rect x="1544.5" y="77.5" width="159.24" height="159.24" rx="20.5" fill="#10529F" fill-opacity="0.3"/>
<rect x="1544.5" y="77.5" width="159.24" height="159.24" rx="20.5" stroke="url(#paint4_linear_705_1376)"/>
<rect x="1142.5" y="0.5" width="159.24" height="159.24" rx="20.5" fill="#635BFF" fill-opacity="0.3"/>
<rect x="1142.5" y="0.5" width="159.24" height="159.24" rx="20.5" stroke="url(#paint5_linear_705_1376)"/>
<rect x="1152.99" y="11" width="138.24" height="138.24" rx="17.28" fill="#635BFF"/>
<path fill-rule="evenodd" clip-rule="evenodd" d="M1215.99 62.65C1215.99 58.9472 1219.02 57.523 1224.06 57.523C1231.27 57.523 1240.39 59.7067 1247.6 63.5995V41.2874C1239.72 38.1542 1231.94 36.9199 1224.06 36.9199C1204.78 36.9199 1191.96 46.9841 1191.96 63.7894C1191.96 89.9942 1228.04 85.8166 1228.04 97.1151C1228.04 101.483 1224.25 102.907 1218.93 102.907C1211.05 102.907 1200.98 99.6786 1193.01 95.3111V117.908C1201.84 121.706 1210.76 123.32 1218.93 123.32C1238.68 123.32 1252.25 113.541 1252.25 96.5454C1252.16 68.2518 1215.99 73.2839 1215.99 62.65Z" fill="white"/>
<rect x="315.377" y="87.9668" width="138.24" height="138.24" rx="17.28" fill="#1B1B1B"/>
<g clip-path="url(#clip0_705_1376)">
<path d="M405.737 117.567C402.759 120.476 401.52 124.464 402.023 128.271L384.174 124.494C381.979 124.057 379.61 124.671 377.897 126.343C375.165 129.013 375.141 133.363 377.845 136.06C378.815 137.029 380.006 137.646 381.258 137.925V137.93L381.424 137.965C381.424 137.965 381.426 137.965 381.427 137.965L392.376 140.282L358.906 172.986C354.837 166.05 354.135 157.724 356.786 150.311H356.783C358.119 146.695 356.277 142.709 352.667 141.408C349.058 140.107 345.046 141.981 343.71 145.596C338.521 159.947 341.697 176.597 353.276 188.151C364.903 199.755 381.82 203.044 396.449 197.985V197.979C400.13 196.719 402.096 192.79 400.837 189.206C399.578 185.62 395.574 183.735 391.89 184.996C384.289 187.642 375.754 186.891 368.693 182.755L402.135 150.083L404.384 161.01L404.423 161.001C404.684 162.26 405.304 163.463 406.287 164.445C408.991 167.144 413.397 167.166 416.129 164.498C418.034 162.636 418.618 159.958 417.882 157.594L414.123 139.329C417.622 139.511 421.185 138.291 423.873 135.665C428.934 130.721 428.978 122.661 423.969 117.663C418.961 112.666 410.798 112.622 405.737 117.567ZM419.403 131.205C416.836 133.713 412.697 133.691 410.157 131.156C407.617 128.622 407.639 124.534 410.206 122.025C412.773 119.517 416.912 119.539 419.452 122.074C421.991 124.609 421.969 128.696 419.403 131.205Z" fill="url(#paint6_radial_705_1376)"/>
</g>
<rect x="706.5" y="0.5" width="159.24" height="159.24" rx="20.5" fill="white" fill-opacity="0.2"/>
<rect x="706.5" y="0.5" width="159.24" height="159.24" rx="20.5" stroke="url(#paint7_linear_705_1376)"/>
<rect x="0.5" y="219.5" width="159.24" height="159.24" rx="20.5" fill="#166BBD" fill-opacity="0.3"/>
<rect x="0.5" y="219.5" width="159.24" height="159.24" rx="20.5" stroke="url(#paint8_linear_705_1376)"/>
<rect x="717.068" y="11" width="138.24" height="138.24" rx="17.28" fill="white"/>
<g clip-path="url(#clip1_705_1376)">
<path d="M811.499 56.7919C811.499 67.494 801.622 80.1199 786.679 80.1199H772.285L771.578 84.5782L768.22 106.04H750.332L761.093 36.9199H790.076C799.835 36.9199 807.513 42.3593 810.341 49.9183C811.157 52.1161 811.55 54.4482 811.499 56.7919Z" fill="#002991"/>
<path d="M821.81 76.663C819.837 88.6454 809.465 97.4284 797.322 97.399H787.326L783.166 123.319H765.373L768.22 106.039L771.58 84.5773L772.285 80.119H786.679C801.603 80.119 811.499 67.4931 811.499 56.791C818.843 60.5811 823.125 68.24 821.81 76.663Z" fill="#60CDFF"/>
<path d="M811.499 56.7912C808.42 55.1803 804.685 54.1992 800.621 54.1992H776.352L772.285 80.1192H786.679C801.604 80.1192 811.499 67.4933 811.499 56.7912Z" fill="#008CFF"/>
</g>
<rect x="11" y="229.812" width="138.24" height="138.24" rx="17.28" fill="#166BBD"/>
<path d="M39.636 271.531C37.8253 269.721 36.9199 267.541 36.9199 264.99C36.9199 262.439 37.8253 260.258 39.636 258.448C41.4458 256.638 43.6262 255.732 46.1774 255.732C48.7276 255.732 50.908 256.638 52.7187 258.448L86.6613 292.391L104.805 310.535V264.99C104.805 262.439 105.71 260.258 107.521 258.448C109.331 256.638 111.511 255.732 114.062 255.732C116.614 255.732 118.794 256.638 120.604 258.448C122.415 260.258 123.32 262.439 123.32 264.99V332.875C123.32 335.426 122.415 337.607 120.604 339.416C118.794 341.227 116.614 342.132 114.062 342.132C111.511 342.132 109.331 341.227 107.521 339.416L73.5785 305.474L39.636 271.531Z" fill="white"/>
<rect x="1859.06" y="229.812" width="138.24" height="138.24" rx="17.28" fill="#211451"/>
<path fill-rule="evenodd" clip-rule="evenodd" d="M1934.89 295.606C1932.65 295.596 1930.47 296.334 1928.7 297.703C1926.93 299.072 1925.67 300.993 1925.12 303.161C1924.58 305.326 1924.78 307.611 1925.69 309.648C1926.61 311.685 1928.18 313.354 1930.16 314.387C1932.14 315.431 1934.41 315.786 1936.62 315.397C1938.83 315.008 1940.84 313.897 1942.35 312.238H1971.09C1972.07 306.962 1971.87 301.534 1970.51 296.344C1969.14 291.154 1966.64 286.331 1963.19 282.222C1959.72 278.088 1955.39 274.764 1950.5 272.484C1945.61 270.204 1940.28 269.023 1934.89 269.025V255.732C1907.14 255.732 1884.65 278.051 1884.65 305.583H1898.04C1898.04 321.769 1908.77 336.02 1924.41 340.621C1940.05 345.221 1956.87 339.076 1965.76 325.519H1946.96C1943.4 327.641 1939.34 328.786 1935.2 328.84C1931.05 328.894 1926.96 327.855 1923.35 325.827C1919.74 323.815 1916.74 320.879 1914.65 317.32C1912.56 313.762 1911.45 309.711 1911.44 305.583H1898.04C1898.04 285.392 1914.54 269.025 1934.88 269.025V282.314C1945.25 282.325 1954.39 289.083 1957.35 298.938H1942.34C1941.4 297.89 1940.25 297.051 1938.97 296.477C1937.68 295.903 1936.29 295.606 1934.88 295.606H1934.89Z" fill="#00BED9"/>
<rect x="1554.68" y="87.9668" width="138.24" height="138.24" rx="17.28" fill="#10529F"/>
<path d="M1647.32 155.949C1647.32 155.949 1647.15 156.744 1647.15 156.877C1647.15 157.009 1642.55 156.479 1642.55 156.479L1642.73 155.021L1647.32 155.949Z" fill="#904A04"/>
<path d="M1646.53 155.594C1646.53 155.594 1634.86 152.106 1629.83 153.034C1624.79 153.961 1628.06 156.678 1628.06 156.678L1646.53 155.594Z" fill="#904A04"/>
<path d="M1600.28 156.082C1600.28 156.082 1600.45 156.877 1600.45 157.009C1600.45 157.142 1605.04 156.612 1605.04 156.612L1604.87 155.154L1600.28 156.082Z" fill="#904A04"/>
<path d="M1601.07 155.729C1601.07 155.729 1612.73 152.24 1617.77 153.169C1622.8 154.097 1619.54 156.813 1619.54 156.813L1601.07 155.729Z" fill="#904A04"/>
<path d="M1624.53 175.03C1636.31 175.03 1645.86 170.166 1645.86 164.165C1645.86 158.164 1636.31 153.299 1624.53 153.299C1612.74 153.299 1603.19 158.164 1603.19 164.165C1603.19 170.166 1612.74 175.03 1624.53 175.03Z" fill="#B26734"/>
<path d="M1618.16 153.83L1606.37 155.685L1598.77 156.85L1596.72 158.954V162.681L1597.11 167.319L1603.53 169.638L1608.54 169.969C1607.07 155.055 1618.16 153.83 1618.16 153.83Z" fill="#B26734"/>
<path d="M1612.3 165.623C1612.3 165.623 1609.92 161.912 1603.69 163.9C1597.46 165.887 1607.14 167.61 1607.14 167.61L1612.3 165.623Z" fill="#6D3C0F"/>
<path d="M1594.45 195.792C1594.45 195.792 1598.57 191.204 1607.92 190.464C1611.59 190.174 1610.73 198.773 1610.73 198.773L1616.98 193.196L1629.19 194.19L1634.14 197.835C1634.14 197.835 1637.3 190.001 1643.33 190.163C1649.37 190.325 1653.01 195.111 1653.01 195.111L1645.35 170.914H1600.98L1594.45 195.792Z" fill="#6D3C0F"/>
<path d="M1634.94 176.711C1632.46 186.915 1631.84 197.401 1623.99 197.401C1616.16 197.401 1615.61 188.011 1613.46 177.517C1611.49 167.926 1617.7 161.525 1623.99 161.525C1626.02 161.541 1628 162.089 1629.74 163.115C1633.71 165.428 1636.53 170.177 1634.94 176.711Z" fill="#B26734"/>
<path d="M1631.81 179.462C1631.81 186.839 1626.67 195.044 1622.8 193.362C1618.74 191.595 1616.59 186.348 1615.79 178.704C1615.02 171.409 1619.67 166.002 1623.7 166.002C1627.74 166.002 1631.81 172.084 1631.81 179.462Z" fill="#BD6E35"/>
<path d="M1629.43 153.693L1641.22 155.552L1648.83 156.713L1650.88 158.817V162.544L1650.49 167.179L1644.06 169.498L1639.06 169.829C1640.52 154.921 1629.43 153.693 1629.43 153.693Z" fill="#B26734"/>
<path d="M1615.91 154.228L1620.51 164.166L1625.16 169.037L1628.93 163.777L1633.27 154.228L1626.96 153.168L1620.81 153.623L1615.91 154.228Z" fill="#A56032"/>
<path d="M1634.29 169.592C1634.29 169.592 1635.5 175.827 1633.11 176.622C1630.73 177.417 1628.48 171.454 1628.48 171.454H1623.44L1623.31 168.274L1631.52 166.684L1634.29 169.592Z" fill="#3A3A3A"/>
<path d="M1613.94 169.592C1613.94 169.592 1612.73 175.827 1615.12 176.622C1617.5 177.417 1619.75 171.454 1619.75 171.454H1624.79L1624.92 168.274L1616.71 166.684L1613.94 169.592Z" fill="#3A3A3A"/>
<path d="M1616.31 170.792L1617.5 169.997L1618.03 169.335H1630.22L1630.62 169.997L1631.68 170.527L1630.88 166.817L1622.8 166.287L1617.37 166.817L1616.31 170.792Z" fill="#444444"/>
<path d="M1634.23 167.555C1634.23 167.555 1634.89 170.404 1632.9 170.997C1630.91 171.591 1630.25 167.482 1630.25 167.482L1631.71 167.08L1634.23 167.555Z" fill="#515151"/>
<path d="M1613.92 167.555C1613.92 167.555 1613.26 170.404 1615.25 170.997C1617.24 171.591 1617.9 167.482 1617.9 167.482L1616.44 167.08L1613.92 167.555Z" fill="#515151"/>
<path d="M1626.66 165.094H1632.08L1634.33 167.612L1631.95 167.744L1629.03 167.347L1626.78 167.612L1626.66 165.094Z" fill="#303030"/>
<path d="M1621.61 165.094H1616.19L1613.94 167.612L1616.33 167.744L1619.24 167.347L1621.49 167.612L1621.61 165.094Z" fill="#303030"/>
<path d="M1626.78 167.612H1621.34L1620.15 165.094H1628.24L1626.78 167.612Z" fill="#515151"/>
<path d="M1626.65 166.417C1626.87 166.417 1627.04 166.24 1627.04 166.02C1627.04 165.801 1626.87 165.623 1626.65 165.623C1626.43 165.623 1626.25 165.801 1626.25 166.02C1626.25 166.24 1626.43 166.417 1626.65 166.417Z" fill="#AAAAAA"/>
<path d="M1624.7 166.816H1623.55C1623.5 166.816 1623.46 166.856 1623.46 166.904V166.994C1623.46 167.042 1623.5 167.081 1623.55 167.081H1624.7C1624.75 167.081 1624.79 167.042 1624.79 166.994V166.904C1624.79 166.856 1624.75 166.816 1624.7 166.816Z" fill="#AAAAAA"/>
<path d="M1615.56 170.447C1615.97 169.691 1616.24 168.866 1616.35 168.013C1616.36 167.925 1616.23 167.925 1616.22 168.013C1616.11 168.843 1615.85 169.645 1615.45 170.38C1615.41 170.455 1615.52 170.522 1615.57 170.447H1615.56Z" fill="#3A3A3A"/>
<path d="M1632.63 170.38C1632.24 169.645 1631.98 168.843 1631.87 168.013C1631.86 167.925 1631.72 167.925 1631.74 168.013C1631.85 168.866 1632.11 169.691 1632.52 170.447C1632.56 170.522 1632.68 170.456 1632.64 170.38H1632.63Z" fill="#3A3A3A"/>
<path d="M1619.35 166.298C1607.76 177.561 1605.29 199.652 1605.29 199.652C1605.29 199.652 1603.05 189.653 1600.82 189.28C1597.84 188.783 1594.51 195.394 1594.51 195.394C1594.51 195.394 1597.52 183.082 1596.44 178.748C1595.42 174.664 1589.9 168.444 1593.21 160.826C1593.21 160.826 1596.15 156.004 1603.59 155.303C1603.59 155.303 1580.7 162.269 1618.74 165.969H1620.01L1619.35 166.298Z" fill="#A4571F"/>
<path d="M1616.26 167.71C1607.04 176.671 1605.2 195.091 1605.2 195.091C1605.2 195.091 1603.11 187.135 1601.33 186.838C1598.96 186.443 1596.15 191.639 1596.15 191.639C1596.15 191.639 1599.32 181.69 1597.85 178.459C1593.54 169.037 1593.28 166.484 1593.68 164.005C1593.68 164.005 1593.68 159.485 1598.03 157.529C1598.03 157.529 1585.52 164.269 1615.79 167.213H1616.79L1616.26 167.71Z" fill="#904A04"/>
<path d="M1636.09 165.49C1636.09 165.49 1638.47 161.78 1644.7 163.767C1650.93 165.755 1641.25 167.477 1641.25 167.477L1636.09 165.49Z" fill="#6D3C0F"/>
<path d="M1628.24 166.164C1639.84 177.427 1642.31 199.518 1642.31 199.518C1642.31 199.518 1644.54 189.518 1646.78 189.145C1649.76 188.649 1653.09 195.26 1653.09 195.26C1653.09 195.26 1650.08 182.948 1651.16 178.614C1652.18 174.53 1657.7 168.311 1654.39 160.691C1654.39 160.691 1651.45 155.869 1644.01 155.168C1644.01 155.168 1666.9 162.134 1628.86 165.834H1627.58L1628.24 166.164Z" fill="#A4571F"/>
<path d="M1631.33 167.578C1640.56 176.539 1642.39 194.958 1642.39 194.958C1642.39 194.958 1644.49 187.002 1646.27 186.705C1648.64 186.31 1651.45 191.507 1651.45 191.507C1651.45 191.507 1648.27 181.558 1649.75 178.33C1654.06 168.904 1654.32 166.355 1653.92 163.876C1653.92 163.876 1653.91 159.356 1649.56 157.4C1649.56 157.4 1662.07 164.14 1631.81 167.084H1630.81L1631.33 167.578Z" fill="#904A04"/>
<path d="M1609.2 155.184C1609.2 155.184 1611.12 158.866 1618.58 158.866C1618.93 158.866 1617.8 158.305 1617.8 158.305C1617.8 158.305 1612.99 158.581 1609.96 155.119C1609.64 154.746 1609.2 155.184 1609.2 155.184Z" fill="#A56032"/>
<path d="M1600.05 163.988V167.393L1601.71 164.488L1600.05 163.988Z" fill="#A4571F"/>
<path d="M1599.02 163.266V165.727L1600.22 163.626L1599.02 163.266Z" fill="#A4571F"/>
<path d="M1647.54 163.857V167.263L1645.89 164.357L1647.54 163.857Z" fill="#A4571F"/>
<path d="M1648.57 163.131V165.594L1647.38 163.492L1648.57 163.131Z" fill="#A4571F"/>
<path d="M1616.21 153.018L1615.88 154.189L1618.69 154.227L1618.83 153.167L1616.21 153.018Z" fill="#824009"/>
<path d="M1633.35 152.934L1633.26 154.249L1630.85 153.784L1631.02 152.77L1633.35 152.934Z" fill="#824009"/>
<path d="M1620.25 198.142C1619.14 201.404 1618.36 203.7 1616.59 203.7C1614.82 203.7 1612.99 200.477 1612.99 197.031C1612.99 193.585 1614.6 189.15 1616.36 189.15C1618.13 189.15 1621.5 194.496 1620.25 198.142Z" fill="#B26734"/>
<path d="M1618.47 205.078L1614.79 204.743L1615.74 201.967L1618.16 201.869L1618.47 205.078Z" fill="#B26734"/>
<path d="M1614.89 204.438L1618.45 204.909L1620.06 208.926C1616.11 204.599 1612.15 208.305 1612.15 208.305L1614.89 204.438Z" fill="#A4571F"/>
<path d="M1615.09 206.281C1615.09 206.281 1613.89 208.051 1614.31 208.926L1615.63 207.604L1617.19 206.281H1615.09Z" fill="#A4571F"/>
<path d="M1627.77 197.519C1628.75 200.822 1629.16 203.225 1630.93 203.225C1632.7 203.225 1634.53 200.003 1634.53 196.556C1634.53 193.11 1632.92 188.674 1631.15 188.674C1629.39 188.674 1626.7 193.889 1627.77 197.519Z" fill="#B26734"/>
<path d="M1629.05 204.605L1632.73 204.27L1631.77 201.495L1629.36 201.396L1629.05 204.605Z" fill="#B26734"/>
<path d="M1632.63 203.965L1629.07 204.437L1627.46 208.454C1631.41 204.126 1635.37 207.832 1635.37 207.832L1632.63 203.965Z" fill="#A4571F"/>
<path d="M1632.13 205.873C1632.13 205.873 1633.33 207.643 1632.91 208.518L1631.59 207.195L1630.03 205.873H1632.13Z" fill="#A4571F"/>
<path d="M1619.74 158.555H1616.98C1616.69 158.555 1616.44 158.797 1616.44 159.096V159.736C1616.44 160.035 1616.69 160.277 1616.98 160.277H1619.74C1620.04 160.277 1620.29 160.035 1620.29 159.736V159.096C1620.29 158.797 1620.04 158.555 1619.74 158.555Z" fill="#3F3F3F"/>
<path d="M1636.71 126.875C1636.71 126.875 1636.71 125.955 1634.83 125.679C1634.07 125.566 1629.65 125.617 1629.65 125.617L1628.27 122.584C1628.27 122.584 1634.37 122.654 1636.29 123.591C1638.21 124.529 1637.78 125.991 1637.61 127.49" fill="#303030"/>
<path d="M1609.06 128.674C1609.06 128.674 1608.94 127.761 1610.76 127.244C1611.51 127.034 1615.9 126.512 1615.9 126.512L1617.69 123.273C1617.69 123.273 1610.83 124.186 1609.05 125.363C1607.27 126.541 1607.88 127.934 1608.25 129.396" fill="#303030"/>
<path d="M1615.67 150.676C1615.55 151.027 1616.05 151.567 1616.24 151.799C1617.69 153.627 1618.83 155.681 1620.12 157.634C1620.68 158.485 1624.23 163.707 1625.32 162.548C1627.18 160.575 1628.54 158.142 1629.88 155.797C1631.28 153.335 1632.53 150.765 1633.31 148.034C1633.34 147.943 1633.36 147.847 1633.35 147.751C1633.26 147.013 1630.08 146.953 1629.48 146.861L1627.65 146.58C1627.49 146.555 1627.07 146.405 1626.91 146.465L1618.37 149.635L1616.68 150.263C1616.45 150.351 1615.82 150.387 1615.69 150.624C1615.68 150.64 1615.67 150.658 1615.67 150.676Z" fill="#B26734"/>
<path d="M1616.9 151.325L1621.94 159.262L1623.18 160.354L1624.74 161.713L1626.28 160.152L1630.69 153.225L1632.99 147.739L1626.58 146.854L1616.9 151.325Z" fill="#A4571F"/>
<path d="M1629.74 153.656L1619 153.127L1621.79 158.825L1622.85 159.885L1624.3 161.077L1625.23 160.282L1625.89 159.62L1626.56 158.692" fill="#CB63D3"/>
<path d="M1622.05 157.322L1622.98 158.913L1624.17 160.105L1628.66 156.13L1623.51 155.6L1622.05 157.322Z" fill="#B25F8C"/>
<path d="M1625.39 105.251C1624.98 105.306 1624.54 105.797 1624.34 106.04C1621.51 109.49 1619.79 113.703 1618.3 117.911C1617.49 120.199 1616.74 122.51 1615.86 124.778C1615.01 126.991 1613.83 129.074 1613.07 131.302C1612.21 133.825 1611.91 136.523 1612.05 139.18C1612.27 143.01 1612.81 147.762 1615.58 150.676C1619.84 155.154 1622.88 158.334 1622.88 158.334L1624.7 159.765L1626.55 158.099C1626.55 158.099 1631.49 153.708 1632.03 151.765C1632.57 149.822 1632.6 149.965 1633.05 148.939C1633.51 147.913 1634.25 147.845 1634.8 144.987C1636.16 138.107 1633.73 131.105 1631.33 124.712C1629.98 121.094 1628.54 117.492 1627.62 113.739C1627.23 112.12 1626.93 110.48 1626.6 108.846C1626.43 108.031 1626.26 107.217 1626.06 106.408C1625.99 106.125 1625.96 105.43 1625.65 105.288C1625.57 105.251 1625.48 105.238 1625.39 105.251Z" fill="#BD6E35"/>
<path d="M1625.75 105.353C1626.06 105.762 1625.58 106.076 1625.63 106.57C1625.68 107.168 1625.75 107.766 1625.82 108.362C1625.97 109.593 1626.15 110.819 1626.36 112.04C1626.78 114.445 1627.33 116.825 1628.01 119.17C1629.89 125.647 1632.75 131.977 1632.92 138.72C1633.1 145.594 1630.4 152.282 1626.63 158.035C1630.66 154.575 1633.62 150.703 1634.89 144.646C1635.6 141.281 1635.26 137.672 1634.52 134.316C1634.16 132.675 1633.35 131.19 1632.92 129.591C1632.44 127.837 1631.87 126.108 1631.27 124.394C1630.06 120.962 1628.7 117.578 1627.69 114.081C1627.01 111.758 1626.79 109.329 1626.2 106.98C1626.16 106.826 1625.99 104.989 1625.39 105.291" fill="#B26734"/>
<path d="M1618.59 142.333C1618.65 143.335 1617.96 144.196 1617.05 144.255C1616.13 144.315 1615.33 143.554 1615.27 142.548C1615.2 141.543 1615.94 141.396 1616.86 141.337C1617.77 141.277 1618.52 141.332 1618.59 142.333Z" fill="white"/>
<path d="M1633.13 141.466C1633.2 142.513 1632.44 143.413 1631.44 143.483C1630.44 143.552 1629.57 142.752 1629.5 141.706C1629.43 140.66 1630.23 140.47 1631.24 140.405C1632.24 140.34 1633.06 140.42 1633.13 141.466Z" fill="white"/>
<path d="M1621.4 150.817C1621.63 150.74 1621.7 150.298 1621.55 149.832C1621.4 149.365 1621.08 149.049 1620.84 149.127C1620.61 149.205 1620.54 149.646 1620.69 150.113C1620.84 150.579 1621.16 150.895 1621.4 150.817Z" fill="#91562D"/>
<path d="M1627.88 150.1C1628.03 149.633 1627.96 149.192 1627.72 149.114C1627.48 149.037 1627.17 149.352 1627.01 149.819C1626.86 150.286 1626.93 150.727 1627.17 150.805C1627.41 150.882 1627.72 150.567 1627.88 150.1Z" fill="#91562D"/>
<path d="M1617.44 143.901C1617.81 143.901 1618.11 143.6 1618.11 143.229C1618.11 142.858 1617.81 142.557 1617.44 142.557C1617.07 142.557 1616.76 142.858 1616.76 143.229C1616.76 143.6 1617.07 143.901 1617.44 143.901Z" fill="#232323"/>
<path d="M1630.96 143.013C1631.33 143.013 1631.64 142.709 1631.64 142.334C1631.64 141.958 1631.33 141.654 1630.96 141.654C1630.58 141.654 1630.28 141.958 1630.28 142.334C1630.28 142.709 1630.58 143.013 1630.96 143.013Z" fill="#232323"/>
<path d="M1636.24 133.921L1634.5 134.034C1634.32 134.045 1634.19 134.199 1634.2 134.378L1634.85 144.31C1634.86 144.488 1635.01 144.623 1635.19 144.612L1636.92 144.499C1637.1 144.487 1637.24 144.333 1637.23 144.155L1636.58 134.223C1636.57 134.044 1636.41 133.909 1636.24 133.921Z" fill="#3F3F3F"/>
<path d="M1637.78 134.351L1636.99 134.402L1637.6 143.79L1638.39 143.739L1637.78 134.351Z" fill="#161616"/>
<path d="M1638.89 134.943L1638.09 134.995C1637.94 135.004 1637.83 135.129 1637.84 135.274L1638.35 143.08C1638.36 143.225 1638.49 143.334 1638.63 143.325L1639.43 143.273C1639.57 143.264 1639.68 143.139 1639.67 142.994L1639.17 135.188C1639.16 135.043 1639.03 134.933 1638.89 134.943Z" fill="#161616"/>
<path d="M1636.41 144.795L1636.35 142.939L1636.83 142.112L1636.36 134.84L1635.57 133.961L1635.49 133.701L1636.53 133.5L1637.22 133.853L1637.89 144.168L1637.27 144.739L1636.41 144.795Z" fill="#303030"/>
<path d="M1637.34 133.314L1637.72 134.352L1638.35 144.004L1637.93 144.696L1639.1 144.354L1638.41 133.776L1637.34 133.314Z" fill="#303030"/>
<path d="M1636.72 126.865L1637.63 127.246L1638.09 133.096L1637.3 133.222L1636.72 126.865Z" fill="#303030"/>
<path d="M1637.32 133.316L1637.31 131.191L1638.41 133.776L1637.32 133.316Z" fill="#303030"/>
<path d="M1608.06 142.524L1607.62 142.553C1607.49 142.561 1607.39 142.677 1607.4 142.811L1607.49 144.309C1607.5 144.443 1607.62 144.545 1607.75 144.536L1608.19 144.507C1608.33 144.499 1608.43 144.383 1608.42 144.249L1608.32 142.751C1608.31 142.617 1608.2 142.515 1608.06 142.524Z" fill="#303030"/>
<path d="M1607.34 141.906C1607.34 141.906 1600.63 161.464 1618.62 160.293L1619.02 160.27L1618.94 159.079C1618.94 159.079 1604.28 162.286 1607.91 144.525C1608.49 141.677 1607.74 142.012 1607.74 142.012L1607.34 141.906Z" fill="#303030"/>
<path d="M1611.13 146.173L1612.86 146.06C1613.04 146.048 1613.17 145.895 1613.16 145.716L1612.52 135.784C1612.51 135.606 1612.35 135.471 1612.17 135.482L1610.44 135.595C1610.26 135.607 1610.12 135.761 1610.14 135.939L1610.78 145.871C1610.79 146.049 1610.95 146.184 1611.13 146.173Z" fill="#3F3F3F"/>
<path d="M1609.57 145.61L1610.36 145.559L1609.75 136.171L1608.96 136.222L1609.57 145.61Z" fill="#161616"/>
<path d="M1608.49 145.282L1609.28 145.23C1609.43 145.221 1609.54 145.095 1609.53 144.95L1609.02 137.145C1609.01 137 1608.89 136.89 1608.74 136.9L1607.94 136.951C1607.8 136.961 1607.69 137.086 1607.7 137.231L1608.21 145.036C1608.22 145.181 1608.34 145.291 1608.49 145.282Z" fill="#161616"/>
<path d="M1611.67 146.405L1611.49 144.558L1610.91 143.798L1610.44 136.526L1611.11 135.553L1611.16 135.284L1610.09 135.221L1609.45 135.661L1610.13 145.974L1610.82 146.46L1611.67 146.405Z" fill="#303030"/>
<path d="M1609.27 135.141L1609.02 136.219L1609.65 145.872L1610.16 146.503L1608.95 146.316L1608.26 135.738L1609.27 135.141Z" fill="#303030"/>
<path d="M1609.08 128.664L1608.24 129.334L1608.49 135.022L1609.3 135.044L1609.08 128.664Z" fill="#303030"/>
<path d="M1609.29 135.14L1609.02 133.033L1608.26 135.738L1609.29 135.14Z" fill="#303030"/>
<path d="M1612.64 133.11C1613.29 132.671 1614.13 132.613 1614.89 132.519C1615.77 132.412 1616.64 132.36 1617.5 132.589C1618.24 132.787 1618.56 131.637 1617.82 131.439C1616.8 131.168 1615.76 131.212 1614.73 131.347C1613.81 131.466 1612.83 131.545 1612.04 132.08C1611.41 132.508 1612.01 133.542 1612.64 133.11Z" fill="#7C441E"/>
<path d="M1629.18 132.155C1630.6 131.567 1632.18 131.473 1633.66 131.887C1634.4 132.094 1634.71 130.944 1633.98 130.737C1632.29 130.26 1630.49 130.355 1628.86 131.005C1628.56 131.126 1628.35 131.402 1628.44 131.738C1628.52 132.022 1628.88 132.276 1629.18 132.155H1629.18Z" fill="#7C441E"/>
<path d="M1625.96 140.46C1625.93 139.846 1624.82 139.106 1623.5 139.172C1622.19 139.239 1621.16 140.085 1621.19 140.7C1621.22 141.316 1622.24 140.393 1623.56 140.327C1624.88 140.261 1625.99 141.076 1625.96 140.46Z" fill="#232323"/>
<path d="M1617.16 146.188C1619.73 146.059 1621.67 143.073 1621.49 139.52C1621.31 135.967 1619.09 133.191 1616.51 133.32C1613.94 133.45 1612 136.435 1612.18 139.989C1612.36 143.542 1614.59 146.318 1617.16 146.188Z" fill="white"/>
<path d="M1630.55 145.516C1633.12 145.387 1635.06 142.402 1634.88 138.848C1634.71 135.295 1632.48 132.519 1629.91 132.649C1627.33 132.778 1625.39 135.763 1625.57 139.317C1625.75 142.87 1627.98 145.646 1630.55 145.516Z" fill="white"/>
<path d="M1613.99 135.208C1613.27 136.246 1612.84 136.809 1612.36 136.834C1611.87 136.858 1611.41 135.974 1611.35 134.918C1611.3 133.862 1614.38 133.705 1614.87 133.68C1615.36 133.655 1614.16 134.968 1613.99 135.208Z" fill="#232323"/>
<path d="M1632.36 134.285C1633.18 135.249 1633.67 135.762 1634.16 135.738C1634.65 135.713 1635.02 134.788 1634.96 133.732C1634.91 132.675 1631.83 132.828 1631.34 132.855C1630.86 132.882 1632.17 134.063 1632.36 134.285Z" fill="#232323"/>
<path d="M1617.03 145.088C1617.9 145.088 1618.6 144.381 1618.6 143.51C1618.6 142.638 1617.9 141.932 1617.03 141.932C1616.15 141.932 1615.45 142.638 1615.45 143.51C1615.45 144.381 1616.15 145.088 1617.03 145.088Z" fill="#232323"/>
<path d="M1630.68 144.552C1631.63 144.552 1632.41 143.778 1632.41 142.824C1632.41 141.869 1631.63 141.096 1630.68 141.096C1629.72 141.096 1628.95 141.869 1628.95 142.824C1628.95 143.778 1629.72 144.552 1630.68 144.552Z" fill="#232323"/>
<path d="M1617.37 144.683C1617.61 144.683 1617.8 144.489 1617.8 144.251C1617.8 144.012 1617.61 143.818 1617.37 143.818C1617.13 143.818 1616.94 144.012 1616.94 144.251C1616.94 144.489 1617.13 144.683 1617.37 144.683Z" fill="white"/>
<path d="M1630.25 144.148C1630.51 144.148 1630.72 143.936 1630.72 143.675C1630.72 143.413 1630.51 143.201 1630.25 143.201C1629.99 143.201 1629.77 143.413 1629.77 143.675C1629.77 143.936 1629.99 144.148 1630.25 144.148Z" fill="white"/>
<path d="M1611.98 134.882C1612.13 134.829 1612.23 134.733 1612.21 134.667C1612.18 134.602 1612.04 134.591 1611.89 134.644C1611.74 134.697 1611.64 134.794 1611.66 134.859C1611.69 134.925 1611.83 134.935 1611.98 134.882Z" fill="#FFC33E"/>
<path d="M1634.64 133.748C1634.67 133.685 1634.57 133.579 1634.43 133.51C1634.29 133.441 1634.15 133.436 1634.12 133.499C1634.09 133.562 1634.18 133.669 1634.32 133.738C1634.47 133.806 1634.61 133.811 1634.64 133.748Z" fill="#FFC33E"/>
<path d="M1609.2 155.241C1609.2 155.241 1608.73 154.203 1608.69 153.862C1608.67 153.782 1609.26 153.752 1609.26 153.752L1609.99 155.097L1609.2 155.241Z" fill="#824009"/>
<defs>
<linearGradient id="paint0_linear_705_1376" x1="1943" y1="380" x2="65" y2="380" gradientUnits="userSpaceOnUse">
<stop stop-color="#D2D2D2"/>
<stop offset="1" stop-color="#D2D2D2" stop-opacity="0"/>
</linearGradient>
<linearGradient id="paint1_linear_705_1376" x1="80" y1="380" x2="1928" y2="380" gradientUnits="userSpaceOnUse">
<stop stop-color="#D2D2D2"/>
<stop offset="1" stop-color="#D2D2D2" stop-opacity="0"/>
</linearGradient>
<linearGradient id="paint2_linear_705_1376" x1="305" y1="78" x2="463" y2="236" gradientUnits="userSpaceOnUse">
<stop stop-color="#6F6F6F"/>
<stop offset="0.5" stop-color="#6F6F6F" stop-opacity="0"/>
<stop offset="1" stop-color="#6F6F6F"/>
</linearGradient>
<linearGradient id="paint3_linear_705_1376" x1="1849" y1="220" x2="2007" y2="378" gradientUnits="userSpaceOnUse">
<stop stop-color="#211451"/>
<stop offset="0.5" stop-color="#211451" stop-opacity="0"/>
<stop offset="1" stop-color="#211451"/>
</linearGradient>
<linearGradient id="paint4_linear_705_1376" x1="1545" y1="78" x2="1703" y2="236" gradientUnits="userSpaceOnUse">
<stop stop-color="#10529F"/>
<stop offset="0.5" stop-color="#10529F" stop-opacity="0"/>
<stop offset="1" stop-color="#10529F"/>
</linearGradient>
<linearGradient id="paint5_linear_705_1376" x1="1143" y1="1" x2="1301" y2="159" gradientUnits="userSpaceOnUse">
<stop stop-color="#635BFF"/>
<stop offset="0.5" stop-color="#635BFF" stop-opacity="0"/>
<stop offset="1" stop-color="#635BFF"/>
</linearGradient>
<radialGradient id="paint6_radial_705_1376" cx="0" cy="0" r="1" gradientUnits="userSpaceOnUse" gradientTransform="translate(414.737 126.036) scale(83.7388 83.7388)">
<stop offset="0.13" stop-color="#F27682"/>
<stop offset="0.25" stop-color="#CB6E8F"/>
<stop offset="0.38" stop-color="#A5669D"/>
<stop offset="0.49" stop-color="#8E61A5"/>
<stop offset="0.56" stop-color="#8660A9"/>
<stop offset="0.63" stop-color="#716EB4"/>
<stop offset="0.78" stop-color="#4A8BC9"/>
<stop offset="0.9" stop-color="#319CD7"/>
<stop offset="0.97" stop-color="#29A3DC"/>
</radialGradient>
<linearGradient id="paint7_linear_705_1376" x1="707" y1="1" x2="865" y2="159" gradientUnits="userSpaceOnUse">
<stop stop-color="white" stop-opacity="0.5"/>
<stop offset="0.5" stop-color="white" stop-opacity="0"/>
<stop offset="1" stop-color="white" stop-opacity="0.5"/>
</linearGradient>
<linearGradient id="paint8_linear_705_1376" x1="1" y1="220" x2="159" y2="378" gradientUnits="userSpaceOnUse">
<stop stop-color="#166BBD"/>
<stop offset="0.5" stop-color="#166BBD" stop-opacity="0"/>
<stop offset="1" stop-color="#166BBD"/>
</linearGradient>
<clipPath id="clip0_705_1376">
<rect width="86.4" height="86.4" fill="white" transform="translate(341.297 113.887)"/>
</clipPath>
<clipPath id="clip1_705_1376">
<rect width="71.7138" height="86.4" fill="white" transform="translate(750.332 36.9199)"/>
</clipPath>
</defs>
</svg>
