<svg width="2009" height="695" viewBox="0 0 2009 695" fill="none" xmlns="http://www.w3.org/2000/svg">
<path d="M1942 315C1942 271.943 1915.99 230.766 1868.59 193.171C1821.2 155.585 1752.56 121.692 1667.66 93.2094C1497.86 36.2484 1263.22 1 1004 1C744.78 1 510.143 36.2484 340.345 93.2094C255.441 121.692 186.803 155.585 139.413 193.171C92.0114 230.766 66 271.943 66 315C66 358.057 92.0114 399.234 139.413 436.829C186.803 474.415 255.441 508.308 340.345 536.791C510.143 593.752 744.78 629 1004 629C1263.22 629 1497.86 593.752 1667.66 536.791C1752.56 508.308 1821.2 474.415 1868.59 436.829C1915.99 399.234 1942 358.057 1942 315Z" stroke="url(#paint0_linear_755_843)" stroke-width="2"/>
<path d="M81 315C81 274.028 106.575 234.826 153.221 199.02C199.853 163.224 267.393 130.945 350.942 103.819C518.029 49.5701 748.92 16 1004 16C1259.08 16 1489.97 49.5701 1657.06 103.819C1740.61 130.945 1808.15 163.224 1854.78 199.02C1901.42 234.826 1927 274.028 1927 315C1927 355.972 1901.42 395.174 1854.78 430.98C1808.15 466.776 1740.61 499.055 1657.06 526.181C1489.97 580.43 1259.08 614 1004 614C748.92 614 518.029 580.43 350.942 526.181C267.393 499.055 199.853 466.776 153.221 430.98C106.575 395.174 81 355.972 81 315Z" stroke="url(#paint1_linear_755_843)" stroke-width="2"/>
<rect x="-0.5" y="0.5" width="159.24" height="159.24" rx="20.5" transform="matrix(1 0 0 -1 305 618)" fill="#3D3C3C" fill-opacity="0.2"/>
<rect x="-0.5" y="0.5" width="159.24" height="159.24" rx="20.5" transform="matrix(1 0 0 -1 305 618)" stroke="url(#paint2_linear_755_843)"/>
<rect x="-0.5" y="0.5" width="159.24" height="159.24" rx="20.5" transform="matrix(1 0 0 -1 1849 476)" fill="#002124" fill-opacity="0.2"/>
<rect x="-0.5" y="0.5" width="159.24" height="159.24" rx="20.5" transform="matrix(1 0 0 -1 1849 476)" stroke="url(#paint3_linear_755_843)"/>
<rect x="-0.5" y="0.5" width="159.24" height="159.24" rx="20.5" transform="matrix(1 0 0 -1 1545 618)" fill="#10529F" fill-opacity="0.3"/>
<rect x="-0.5" y="0.5" width="159.24" height="159.24" rx="20.5" transform="matrix(1 0 0 -1 1545 618)" stroke="url(#paint4_linear_755_843)"/>
<rect x="-0.5" y="0.5" width="159.24" height="159.24" rx="20.5" transform="matrix(1 0 0 -1 1143 695)" fill="#22272E" fill-opacity="0.2"/>
<rect x="-0.5" y="0.5" width="159.24" height="159.24" rx="20.5" transform="matrix(1 0 0 -1 1143 695)" stroke="url(#paint5_linear_755_843)"/>
<rect width="138.24" height="138.24" rx="17.28" transform="matrix(1 0 0 -1 1152.99 684)" fill="#22272E"/>
<path d="M1182.83 599.171L1198.54 614.881L1182.83 630.591L1196.97 644.73L1228.39 613.31L1198.54 583.461L1182.83 599.171Z" fill="#31B7E9"/>
<path d="M1226.82 611.738L1195.4 643.158L1198.54 646.3L1229.96 614.88L1226.82 611.738Z" fill="#0682B4"/>
<path d="M1206.4 575.606L1245.67 614.881L1206.4 654.156L1220.54 668.294L1275.52 613.31L1222.11 559.896L1206.4 575.606Z" fill="#31B7E9"/>
<path d="M1273.95 611.738L1218.97 666.723L1222.11 669.865L1277.09 614.88L1273.95 611.738Z" fill="#0682B4"/>
<rect width="138.24" height="138.24" rx="17.28" transform="matrix(1 0 0 -1 315.377 607.033)" fill="#1B1B1B"/>
<path fill-rule="evenodd" clip-rule="evenodd" d="M404.922 509.852C404.199 509.762 403.476 509.762 402.753 509.762C395.794 509.762 389.196 512.563 384.497 517.624C379.797 512.654 373.2 509.762 366.331 509.762C352.504 509.762 341.297 520.968 341.297 534.615V565.976H354.763V535.067C354.763 529.373 359.463 524.132 364.976 523.589C365.337 523.589 365.789 523.499 366.15 523.499C372.386 523.499 377.448 528.56 377.448 534.796V566.066H391.185V534.977C391.185 529.283 395.884 524.041 401.397 523.499C401.759 523.499 402.211 523.409 402.572 523.409C408.808 523.409 413.869 528.47 413.96 534.615V565.976H427.697V535.067C427.697 528.741 425.347 522.776 421.19 518.076C416.942 513.286 411.158 510.394 404.922 509.852Z" fill="white"/>
<rect x="-0.5" y="0.5" width="159.24" height="159.24" rx="20.5" transform="matrix(1 0 0 -1 707 695)" fill="white" fill-opacity="0.2"/>
<rect x="-0.5" y="0.5" width="159.24" height="159.24" rx="20.5" transform="matrix(1 0 0 -1 707 695)" stroke="url(#paint6_linear_755_843)"/>
<rect x="-0.5" y="0.5" width="159.24" height="159.24" rx="20.5" transform="matrix(1 0 0 -1 1 476)" fill="#FF6C2C" fill-opacity="0.3"/>
<rect x="-0.5" y="0.5" width="159.24" height="159.24" rx="20.5" transform="matrix(1 0 0 -1 1 476)" stroke="url(#paint7_linear_755_843)"/>
<rect width="138.24" height="138.24" rx="17.28" transform="matrix(1 0 0 -1 717.068 684)" fill="white"/>
<g clip-path="url(#clip0_755_843)">
<path d="M838.028 563.039H734.348V666.719H838.028V563.039Z" fill="white"/>
<path d="M745.401 632.898H742.768V605.319C744.862 604.656 747.06 604.303 749.279 604.282C750.709 604.262 752.14 604.511 753.488 605.008C754.691 605.444 755.811 606.128 756.744 607.02C757.656 607.891 758.361 608.927 758.817 610.109C759.315 611.333 759.543 612.66 759.543 613.987C759.543 615.687 759.253 617.139 758.672 618.362C758.133 619.523 757.345 620.539 756.37 621.369C755.417 622.157 754.318 622.737 753.115 623.09C751.912 623.463 750.647 623.65 749.382 623.65C748.698 623.65 748.035 623.608 747.371 623.505C746.707 623.401 746.044 623.256 745.401 623.09V632.898ZM756.536 613.925C756.536 611.727 755.914 609.943 754.691 608.575C753.467 607.227 751.726 606.543 749.507 606.543C748.802 606.543 748.117 606.584 747.412 606.667C746.728 606.75 746.044 606.916 745.401 607.144V620.602C746.023 620.809 746.645 620.975 747.288 621.12C747.91 621.265 748.532 621.327 749.175 621.327C751.435 621.327 753.219 620.685 754.546 619.399C755.873 618.134 756.536 616.309 756.536 613.925Z" fill="black"/>
<path d="M764.852 623.464V596.859H767.506V623.443H764.852V623.464Z" fill="black"/>
<path d="M789.257 620.686C788.407 621.619 787.349 622.365 786.188 622.863C785.027 623.361 783.617 623.61 781.978 623.61C780.61 623.63 779.241 623.382 777.976 622.822C776.877 622.345 775.903 621.619 775.136 620.707C774.368 619.815 773.788 618.778 773.435 617.658C773.041 616.497 772.855 615.274 772.855 614.05C772.813 612.578 773.062 611.085 773.539 609.696C773.933 608.555 774.576 607.518 775.405 606.627C776.172 605.839 777.105 605.217 778.142 604.823C779.2 604.429 780.32 604.242 781.439 604.242C784.218 604.242 786.333 605.092 787.743 606.813C789.153 608.514 789.837 611.002 789.796 614.278H775.55C775.633 616.435 776.255 618.135 777.416 619.4C778.578 620.665 780.174 621.308 782.165 621.308C783.202 621.329 784.239 621.142 785.213 620.748C786.167 620.354 786.997 619.753 787.681 618.985L789.257 620.686ZM787.121 612.06C787.121 611.313 786.997 610.567 786.768 609.862C786.54 609.219 786.209 608.617 785.752 608.12C785.275 607.601 784.674 607.207 784.031 606.959C782.435 606.378 780.672 606.378 779.075 606.959C778.453 607.207 777.873 607.581 777.416 608.078C776.96 608.597 776.587 609.177 776.297 609.799C775.944 610.504 775.737 611.272 775.633 612.06H787.121Z" fill="black"/>
<path d="M807.194 608.949C806.613 608.182 805.887 607.56 805.037 607.104C804.187 606.689 803.233 606.482 802.3 606.523C800.952 606.523 799.998 606.772 799.459 607.249C798.92 607.705 798.63 608.369 798.65 609.074C798.63 609.53 798.775 609.986 799.024 610.359C799.293 610.732 799.625 611.043 800.019 611.272C800.475 611.541 800.952 611.769 801.45 611.935C801.989 612.122 802.549 612.308 803.15 612.495C803.876 612.723 804.581 612.972 805.307 613.241C806.012 613.49 806.675 613.843 807.277 614.278C807.857 614.693 808.355 615.232 808.728 615.854C809.122 616.559 809.309 617.368 809.288 618.197C809.309 619.006 809.101 619.794 808.728 620.52C808.355 621.204 807.836 621.785 807.214 622.241C806.53 622.739 805.763 623.091 804.954 623.298C802.715 623.879 800.33 623.755 798.173 622.925C796.909 622.365 795.768 621.515 794.876 620.478L796.95 618.654C798.339 620.437 800.123 621.308 802.321 621.308C803.751 621.308 804.809 621.038 805.514 620.499C806.198 619.96 806.551 619.317 806.551 618.571C806.572 618.052 806.447 617.555 806.178 617.098C805.908 616.684 805.556 616.352 805.141 616.082C804.664 615.792 804.166 615.543 803.627 615.377C803.046 615.191 802.445 615.004 801.823 614.817C801.097 614.61 800.392 614.382 799.687 614.133C799.024 613.905 798.381 613.573 797.8 613.159C797.24 612.765 796.763 612.246 796.432 611.666C796.058 610.961 795.872 610.152 795.893 609.343C795.893 607.663 796.494 606.378 797.717 605.465C798.941 604.553 800.517 604.097 802.466 604.097C803.731 604.076 804.975 604.325 806.136 604.802C807.214 605.258 808.23 606.067 809.226 607.207L807.277 608.991L807.194 608.949Z" fill="black"/>
<path d="M814.245 623.463V596.9H816.899V623.463H814.245ZM816.92 613.655L826.043 604.448H829.61L820.258 613.572L829.569 623.442H825.878L816.92 613.655Z" fill="black"/>
<path d="M774.1 632.898H758.091V630.389H774.1V632.898Z" fill="#53BCE6"/>
</g>
<rect width="138.24" height="138.24" rx="17.28" transform="matrix(1 0 0 -1 11 465.188)" fill="#FF6C2C"/>
<path d="M54.226 378.449H73.8407L70.8059 390.079C70.3888 391.631 69.4741 393.003 68.2022 393.985C66.9375 394.966 65.3762 395.486 63.7759 395.46H54.6599C52.6749 395.433 50.7385 396.075 49.1632 397.283C47.5492 398.533 46.3781 400.266 45.8217 402.23C45.4199 403.673 45.3752 405.192 45.6915 406.656C45.9822 407.992 46.5553 409.25 47.3724 410.345C48.2003 411.43 49.2702 412.307 50.4969 412.905C51.7911 413.547 53.2184 413.874 54.6628 413.86H60.2174C60.7135 413.852 61.2044 413.961 61.6496 414.18C62.0949 414.399 62.4816 414.721 62.7778 415.119C63.1023 415.503 63.3253 415.962 63.4264 416.455C63.5275 416.948 63.5034 417.458 63.3564 417.939L59.8848 430.784H53.8094C49.8105 430.824 45.8626 429.886 42.3096 428.05C38.8975 426.309 35.9129 423.834 33.5697 420.803C31.2465 417.776 29.6303 414.267 28.8396 410.533C28.0008 406.611 28.1059 402.545 29.1463 398.672L29.4934 397.37C30.9616 391.932 34.1782 387.129 38.647 383.7C40.8385 382.039 43.2797 380.735 45.8796 379.838C48.5634 378.908 51.3854 378.438 54.226 378.449Z" fill="white"/>
<path d="M64.1201 430.784L81.2208 366.732C81.638 365.18 82.5527 363.808 83.8246 362.826C85.088 361.845 86.6485 361.325 88.248 361.351H106.39C110.389 361.311 114.337 362.25 117.89 364.085C121.299 365.824 124.278 368.299 126.612 371.331C128.946 374.363 130.577 377.877 131.386 381.617C132.255 385.538 132.135 389.614 131.039 393.478L130.692 394.78C129.96 397.512 128.787 400.106 127.22 402.461C124.901 405.952 121.753 408.813 118.057 410.79C114.362 412.766 110.234 413.796 106.043 413.787H90.3339L93.4584 402.07C93.8926 400.55 94.8057 399.211 96.0621 398.251C97.3268 397.27 98.8881 396.75 100.488 396.776H105.522C107.55 396.778 109.52 396.106 111.123 394.864C112.726 393.623 113.87 391.883 114.375 389.92C114.774 388.53 114.814 387.062 114.491 385.652C114.197 384.316 113.619 383.058 112.798 381.964C111.964 380.874 110.896 379.984 109.674 379.36C108.392 378.694 106.967 378.351 105.522 378.362H95.8017L83.1302 425.489C82.696 427.009 81.7829 428.349 80.5265 429.308C79.29 430.279 77.7592 430.8 76.187 430.784H64.1201Z" fill="white"/>
<rect width="138.24" height="138.24" rx="17.28" transform="matrix(1 0 0 -1 1859.06 465.188)" fill="#002124"/>
<path d="M1939.86 391.503C1938.25 391.503 1937.17 390.43 1937.17 388.819V377.006H1936.1C1929.92 377.006 1927.77 378.08 1927.77 383.718V396.873V399.558V399.826V418.351C1927.77 420.499 1927.24 422.378 1926.43 423.72C1924.82 426.405 1921.33 427.479 1916.23 427.479C1910.86 427.479 1907.64 426.405 1906.03 423.72C1905.22 422.378 1904.69 420.499 1904.69 418.351V400.095V399.826V396.873V383.718C1904.69 378.08 1902.54 377.006 1896.36 377.006H1894.48C1888.31 377.006 1886.16 378.08 1886.16 383.718V418.351C1886.16 423.989 1887.5 428.553 1889.92 432.312C1894.48 439.56 1903.61 443.588 1916.5 443.588C1929.39 443.588 1938.51 439.56 1943.08 432.312C1945.49 428.553 1946.84 423.72 1946.84 418.351V391.503H1939.86Z" fill="white"/>
<path d="M1958.11 358.213H1968.31C1969.39 358.213 1970.19 359.018 1970.19 360.092V370.294C1970.19 371.368 1969.39 372.174 1968.31 372.174H1958.11C1957.04 372.174 1956.23 371.368 1956.23 370.294V360.092C1956.23 359.018 1957.04 358.213 1958.11 358.213Z" fill="white"/>
<path d="M1947.91 348.547H1954.89C1955.7 348.547 1956.23 349.084 1956.23 349.889V356.87C1956.23 357.675 1955.7 358.212 1954.89 358.212H1947.91C1947.11 358.212 1946.57 357.675 1946.57 356.87V349.889C1946.57 349.084 1947.37 348.547 1947.91 348.547Z" fill="white"/>
<path d="M1953.55 372.441H1939.86C1938.25 372.441 1937.17 373.515 1937.17 375.126V377.005H1938.25C1944.42 377.005 1946.57 378.079 1946.57 383.717V391.772H1953.55C1955.16 391.772 1956.23 390.698 1956.23 389.087V375.126C1956.23 373.515 1955.16 372.441 1953.55 372.441Z" fill="white"/>
<rect width="138.24" height="138.24" rx="17.28" transform="matrix(1 0 0 -1 1554.68 607.033)" fill="#4373FC"/>
<path d="M1631.63 560.081L1640.14 574.773L1644.23 572.22L1645.68 567.373L1636.57 551.599L1631.63 560.081ZM1604.15 501.983L1600.15 505.532L1610.97 524.119L1615.88 515.637L1605.99 498.564L1604.15 501.983ZM1613.39 547.423L1601.45 568.087L1602.94 573.605L1606.6 576.179L1623.91 546.363L1628.82 537.859L1647.84 504.775L1644.66 500.447L1643.6 498.911L1638.95 503.238L1613.39 547.423Z" fill="white"/>
<path d="M1603.79 494.713L1598.85 503.238L1583.79 529.333L1578.88 537.989L1603.79 581.026L1608.7 572.609L1588.7 537.989L1608.7 503.368H1623L1627.91 494.713H1603.79ZM1638.9 503.368L1658.94 537.989L1638.9 572.609H1624.58L1619.69 581.113H1643.79L1648.73 572.609L1663.87 546.471L1668.72 537.989L1663.81 529.333L1648.66 503.238L1643.79 494.713L1638.9 503.368Z" fill="white"/>
<defs>
<linearGradient id="paint0_linear_755_843" x1="1943" y1="315" x2="65" y2="315" gradientUnits="userSpaceOnUse">
<stop stop-color="#D2D2D2"/>
<stop offset="1" stop-color="#D2D2D2" stop-opacity="0"/>
</linearGradient>
<linearGradient id="paint1_linear_755_843" x1="80" y1="315" x2="1928" y2="315" gradientUnits="userSpaceOnUse">
<stop stop-color="#D2D2D2"/>
<stop offset="1" stop-color="#D2D2D2" stop-opacity="0"/>
</linearGradient>
<linearGradient id="paint2_linear_755_843" x1="0" y1="0" x2="158" y2="158" gradientUnits="userSpaceOnUse">
<stop stop-color="#6F6F6F"/>
<stop offset="0.5" stop-color="#6F6F6F" stop-opacity="0"/>
<stop offset="1" stop-color="#6F6F6F"/>
</linearGradient>
<linearGradient id="paint3_linear_755_843" x1="0" y1="0" x2="158" y2="158" gradientUnits="userSpaceOnUse">
<stop stop-color="#00575F"/>
<stop offset="0.5" stop-color="#00575F" stop-opacity="0"/>
<stop offset="1" stop-color="#00575F"/>
</linearGradient>
<linearGradient id="paint4_linear_755_843" x1="0" y1="0" x2="158" y2="158" gradientUnits="userSpaceOnUse">
<stop stop-color="#4373FC"/>
<stop offset="0.5" stop-color="#4373FC" stop-opacity="0"/>
<stop offset="1" stop-color="#4373FC"/>
</linearGradient>
<linearGradient id="paint5_linear_755_843" x1="0" y1="0" x2="158" y2="158" gradientUnits="userSpaceOnUse">
<stop stop-color="#3C3C3C"/>
<stop offset="0.5" stop-color="#3C3C3C" stop-opacity="0"/>
<stop offset="1" stop-color="#3C3C3C"/>
</linearGradient>
<linearGradient id="paint6_linear_755_843" x1="0" y1="0" x2="158" y2="158" gradientUnits="userSpaceOnUse">
<stop stop-color="white" stop-opacity="0.5"/>
<stop offset="0.5" stop-color="white" stop-opacity="0"/>
<stop offset="1" stop-color="white" stop-opacity="0.5"/>
</linearGradient>
<linearGradient id="paint7_linear_755_843" x1="0" y1="0" x2="158" y2="158" gradientUnits="userSpaceOnUse">
<stop stop-color="#FF6C2C"/>
<stop offset="0.5" stop-color="#FF6C2C" stop-opacity="0"/>
<stop offset="1" stop-color="#FF6C2C"/>
</linearGradient>
<clipPath id="clip0_755_843">
<rect width="103.68" height="103.68" fill="white" transform="translate(734.348 563.039)"/>
</clipPath>
</defs>
</svg>
