<svg width="897" height="198" viewBox="0 0 897 198" fill="none" xmlns="http://www.w3.org/2000/svg">
<path d="M268.92 115.92V97.86H296.92C303.453 97.86 308.167 96.6467 311.06 94.22C314.047 91.7 315.54 88.0133 315.54 83.16C315.54 78.3067 314.047 74.6667 311.06 72.24C308.167 69.72 303.453 68.46 296.92 68.46H268.92V50.4H298.18C306.113 50.4 312.833 51.7533 318.34 54.46C323.94 57.0733 328.187 60.8533 331.08 65.8C333.973 70.6533 335.42 76.44 335.42 83.16C335.42 89.7867 333.973 95.5733 331.08 100.52C328.187 105.467 323.94 109.293 318.34 112C312.833 114.613 306.113 115.92 298.18 115.92H268.92ZM260.24 147V50.4H279.7V147H260.24ZM381.93 147C381.37 144.573 380.903 142.1 380.53 139.58C380.25 137.06 380.11 134.587 380.11 132.16V100.8C380.11 95.5733 378.85 91.8867 376.33 89.74C373.81 87.5 370.776 86.38 367.23 86.38C363.87 86.38 360.976 87.3133 358.55 89.18C356.216 90.9533 354.583 93.8467 353.65 97.86L335.87 93.52C337.923 86.1467 341.796 80.5467 347.49 76.72C353.183 72.8933 360.136 70.98 368.35 70.98C377.776 70.98 385.196 73.5 390.61 78.54C396.023 83.4867 398.73 90.3467 398.73 99.12V130.48C398.73 135.987 399.43 141.493 400.83 147H381.93ZM356.59 148.82C349.59 148.82 344.176 146.907 340.35 143.08C336.616 139.253 334.75 134.307 334.75 128.24C334.75 122.733 336.57 117.88 340.21 113.68C343.943 109.48 349.73 106.773 357.57 105.56L385.01 100.94V113.26L364.15 117.6C360.136 118.44 357.336 119.7 355.75 121.38C354.163 122.967 353.37 124.74 353.37 126.7C353.37 128.66 354.023 130.34 355.33 131.74C356.73 133.047 358.876 133.7 361.77 133.7C364.756 133.7 367.65 133.047 370.45 131.74C373.25 130.34 375.536 128.333 377.31 125.72C379.176 123.013 380.11 119.793 380.11 116.06H384.87C384.87 122.78 383.61 128.613 381.09 133.56C378.57 138.413 375.163 142.193 370.87 144.9C366.67 147.513 361.91 148.82 356.59 148.82ZM420.835 173.32C418.129 173.32 415.609 173.133 413.275 172.76C411.035 172.48 408.795 172.06 406.555 171.5V154.84C408.422 155.307 410.429 155.727 412.575 156.1C414.722 156.567 416.915 156.8 419.155 156.8C423.449 156.8 426.762 156.007 429.095 154.42C431.522 152.927 433.202 150.453 434.135 147L453.735 72.8H473.195L451.355 147C449.302 154 446.782 159.413 443.795 163.24C440.902 167.067 437.542 169.68 433.715 171.08C429.889 172.573 425.595 173.32 420.835 173.32ZM422.375 147L400.535 72.8H420.415L440.715 147H422.375ZM561.99 147V103.04C561.99 97.9067 560.777 94.0333 558.35 91.42C556.017 88.8067 553.077 87.5 549.53 87.5C545.984 87.5 542.997 88.8067 540.57 91.42C538.237 94.0333 537.07 97.9067 537.07 103.04H531.61C531.61 96.32 532.637 90.58 534.69 85.82C536.837 81.06 539.824 77.42 543.65 74.9C547.477 72.2867 551.91 70.98 556.95 70.98C563.857 70.98 569.504 73.5 573.89 78.54C578.37 83.4867 580.61 90.3933 580.61 99.26V147H561.99ZM475.05 147V72.8H493.67V147H475.05ZM518.59 147V103.04C518.59 97.9067 517.377 94.0333 514.95 91.42C512.617 88.8067 509.677 87.5 506.13 87.5C502.584 87.5 499.597 88.8067 497.17 91.42C494.837 94.0333 493.67 97.9067 493.67 103.04H489.61C489.61 96.32 490.59 90.58 492.55 85.82C494.604 81.06 497.45 77.42 501.09 74.9C504.824 72.2867 509.07 70.98 513.83 70.98C520.644 70.98 526.197 73.5 530.49 78.54C534.877 83.4867 537.07 90.3933 537.07 99.26V147H518.59ZM620.953 148.82C614.14 148.82 608.073 147.187 602.753 143.92C597.433 140.653 593.28 136.127 590.293 130.34C587.4 124.46 585.953 117.647 585.953 109.9C585.953 101.967 587.447 95.1067 590.433 89.32C593.42 83.44 597.573 78.9133 602.893 75.74C608.213 72.5667 614.28 70.98 621.093 70.98C627.907 70.98 633.927 72.5667 639.153 75.74C644.38 78.9133 648.44 83.3933 651.333 89.18C654.32 94.9667 655.813 101.873 655.813 109.9C655.813 110.833 655.767 111.72 655.673 112.56C655.673 113.4 655.673 114.333 655.673 115.36H597.573V102.34H641.953L636.773 109.9C636.773 101.593 635.373 95.6667 632.573 92.12C629.867 88.48 626.04 86.66 621.093 86.66C616.333 86.66 612.46 88.48 609.473 92.12C606.58 95.6667 605.133 101.593 605.133 109.9C605.133 117.647 606.627 123.387 609.613 127.12C612.6 130.76 616.66 132.58 621.793 132.58C625.247 132.58 628.233 131.787 630.753 130.2C633.273 128.613 635.14 126.14 636.353 122.78L653.853 127.82C651.893 134.167 648.067 139.253 642.373 143.08C636.773 146.907 629.633 148.82 620.953 148.82ZM707.97 147V104.16C707.97 98.6533 706.617 94.5 703.91 91.7C701.203 88.9 697.843 87.5 693.83 87.5C689.817 87.5 686.457 88.9 683.75 91.7C681.043 94.5 679.69 98.6533 679.69 104.16H675.63C675.63 97.16 676.703 91.1867 678.85 86.24C681.09 81.2933 684.123 77.5133 687.95 74.9C691.87 72.2867 696.397 70.98 701.53 70.98C706.383 70.98 710.677 72.1933 714.41 74.62C718.237 76.9533 721.223 80.3133 723.37 84.7C725.517 88.9933 726.59 94.22 726.59 100.38V147H707.97ZM661.07 147V72.8H679.69V147H661.07ZM763.694 148.82C755.854 148.82 749.694 146.627 745.214 142.24C740.734 137.76 738.494 131.133 738.494 122.36V57.4L756.974 53.76V119.98C756.974 123.9 757.954 126.84 759.914 128.8C761.968 130.76 764.814 131.74 768.454 131.74C770.228 131.74 771.861 131.6 773.354 131.32C774.848 130.947 776.388 130.573 777.974 130.2V147C775.828 147.56 773.634 147.98 771.394 148.26C769.154 148.633 766.588 148.82 763.694 148.82ZM728.834 88.34V72.8H777.274V88.34H728.834ZM812.688 148.82C805.874 148.82 799.808 147.187 794.488 143.92C789.168 140.653 785.014 136.127 782.028 130.34C779.134 124.46 777.688 117.647 777.688 109.9C777.688 101.967 779.181 95.1067 782.168 89.32C785.154 83.44 789.308 78.9133 794.628 75.74C799.948 72.5667 806.014 70.98 812.828 70.98C819.641 70.98 825.661 72.5667 830.888 75.74C836.114 78.9133 840.174 83.3933 843.068 89.18C846.054 94.9667 847.548 101.873 847.548 109.9C847.548 110.833 847.501 111.72 847.408 112.56C847.408 113.4 847.408 114.333 847.408 115.36H789.308V102.34H833.688L828.508 109.9C828.508 101.593 827.108 95.6667 824.308 92.12C821.601 88.48 817.774 86.66 812.828 86.66C808.068 86.66 804.194 88.48 801.208 92.12C798.314 95.6667 796.868 101.593 796.868 109.9C796.868 117.647 798.361 123.387 801.348 127.12C804.334 130.76 808.394 132.58 813.528 132.58C816.981 132.58 819.968 131.787 822.488 130.2C825.008 128.613 826.874 126.14 828.088 122.78L845.588 127.82C843.628 134.167 839.801 139.253 834.108 143.08C828.508 146.907 821.368 148.82 812.688 148.82ZM852.804 147V72.8H871.424V147H852.804ZM868.064 111.72C868.064 103.507 868.998 96.3667 870.864 90.3C872.731 84.14 875.624 79.38 879.544 76.02C883.464 72.66 888.458 70.98 894.524 70.98V92.12H886.404C881.738 92.12 878.051 93.3333 875.344 95.76C872.731 98.0933 871.424 102.2 871.424 108.08L868.064 111.72Z" fill="#0F0F16"/>
<rect width="198" height="198" rx="44" fill="#4060FF"/>
<path d="M80.1428 159H55V101.634L99 79.6829V57.7317L55 79.6829V39H113.667C129.54 39 138.971 45.4168 141.96 58.2505L99 79.6829V101.634L143 79.6829V91.5217C143 111 133.222 120.739 113.667 120.739H80.1428V159Z" fill="url(#paint0_linear_962_3485)"/>
<path d="M99 79.6829V101.634L143 79.6829V91.5217C143 111 133.222 120.739 113.667 120.739H80.1428V159H55V101.634L99 79.6829ZM99 79.6829L141.96 58.2505C138.971 45.4168 129.54 39 113.667 39H55V79.6829L99 57.7317V79.6829Z" stroke="url(#paint1_linear_962_3485)"/>
<defs>
<linearGradient id="paint0_linear_962_3485" x1="99" y1="158.981" x2="99" y2="39.0385" gradientUnits="userSpaceOnUse">
<stop stop-color="white" stop-opacity="0.5"/>
<stop offset="0.15" stop-color="white" stop-opacity="0.65"/>
<stop offset="0.3" stop-color="white" stop-opacity="0.78"/>
<stop offset="0.46" stop-color="white" stop-opacity="0.88"/>
<stop offset="0.62" stop-color="white" stop-opacity="0.95"/>
<stop offset="0.8" stop-color="white" stop-opacity="0.99"/>
<stop offset="1" stop-color="white"/>
</linearGradient>
<linearGradient id="paint1_linear_962_3485" x1="99" y1="39" x2="99" y2="159" gradientUnits="userSpaceOnUse">
<stop stop-color="white" stop-opacity="0"/>
<stop offset="1" stop-color="white" stop-opacity="0.7"/>
</linearGradient>
</defs>
</svg>
