<svg width="946" height="205" viewBox="0 0 946 205" fill="none" xmlns="http://www.w3.org/2000/svg">
<g clip-path="url(#clip0_1_63)">
<path fill-rule="evenodd" clip-rule="evenodd" d="M0 107V205H42.8571V139.638H100C133.333 139.638 150 123 150 89.7246V69.5L75 107V69.5L148.227 32.8863C143.133 10.9621 127.057 0 100 0H0V107ZM0 107V69.5L75 32V69.5L0 107Z" fill="#4667FF"/>
</g>
<g clip-path="url(#clip1_1_63)">
<path d="M235.72 121.328V100.448H264.808C271.048 100.448 275.512 99.296 278.2 96.992C280.984 94.688 282.376 91.328 282.376 86.912C282.376 82.592 280.984 79.28 278.2 76.976C275.512 74.672 271.048 73.52 264.808 73.52H235.72V52.64H266.104C274.648 52.64 281.8 54.08 287.56 56.96C293.416 59.744 297.784 63.728 300.664 68.912C303.64 74 305.128 80 305.128 86.912C305.128 93.824 303.64 99.872 300.664 105.056C297.784 110.24 293.416 114.272 287.56 117.152C281.8 119.936 274.648 121.328 266.104 121.328H235.72ZM225.928 152V52.64H248.248V152H225.928ZM358.562 152C357.986 149.504 357.506 146.96 357.122 144.368C356.834 141.776 356.69 139.232 356.69 136.736V104.48C356.69 99.488 355.538 95.984 353.234 93.968C350.93 91.952 348.194 90.944 345.026 90.944C341.954 90.944 339.266 91.808 336.962 93.536C334.754 95.264 333.218 98.096 332.354 102.032L311.762 97.568C313.778 89.6 317.81 83.648 323.858 79.712C329.906 75.68 337.394 73.664 346.322 73.664C356.114 73.664 363.842 76.256 369.506 81.44C375.266 86.528 378.146 93.632 378.146 102.752V135.008C378.146 140.672 378.866 146.336 380.306 152H358.562ZM333.506 154.016C326.018 154.016 320.306 152.048 316.37 148.112C312.53 144.176 310.61 138.992 310.61 132.56C310.61 126.896 312.482 121.904 316.226 117.584C320.066 113.168 325.97 110.336 333.938 109.088L362.882 104.336V117.872L341.714 122.336C338.066 123.104 335.57 124.256 334.226 125.792C332.882 127.328 332.21 128.96 332.21 130.688C332.21 132.512 332.786 134.048 333.938 135.296C335.186 136.448 337.01 137.024 339.41 137.024C342.194 137.024 344.882 136.4 347.474 135.152C350.162 133.904 352.37 132.032 354.098 129.536C355.826 126.944 356.69 123.824 356.69 120.176H361.586C361.586 127.088 360.338 133.088 357.842 138.176C355.442 143.264 352.13 147.2 347.906 149.984C343.682 152.672 338.882 154.016 333.506 154.016ZM409.366 179.36C406.294 179.36 403.414 179.168 400.726 178.784C398.038 178.4 395.398 177.872 392.806 177.2V158.048C394.822 158.624 397.03 159.152 399.43 159.632C401.83 160.112 404.374 160.352 407.062 160.352C411.478 160.352 414.838 159.632 417.142 158.192C419.542 156.752 421.078 154.688 421.75 152L440.47 75.68H463.078L441.622 152C439.51 159.392 436.87 165.056 433.702 168.992C430.63 172.928 427.03 175.616 422.902 177.056C418.87 178.592 414.358 179.36 409.366 179.36ZM407.926 152L386.47 75.68H409.654L428.95 152H407.926ZM560.421 152V107.936C560.421 102.848 559.317 99.056 557.109 96.56C554.997 93.968 552.261 92.672 548.901 92.672C545.541 92.672 542.757 93.968 540.549 96.56C538.437 99.056 537.381 102.848 537.381 107.936H531.189C531.189 100.64 532.245 94.448 534.357 89.36C536.565 84.272 539.637 80.384 543.573 77.696C547.509 75.008 552.165 73.664 557.541 73.664C564.645 73.664 570.453 76.304 574.965 81.584C579.573 86.864 581.877 94.208 581.877 103.616V152H560.421ZM471.429 152V75.68H492.885V152H471.429ZM515.925 152V107.936C515.925 102.848 514.869 99.056 512.757 96.56C510.645 93.968 507.861 92.672 504.405 92.672C501.045 92.672 498.261 93.968 496.053 96.56C493.941 99.056 492.885 102.848 492.885 107.936H489.141C489.141 100.64 490.101 94.448 492.021 89.36C494.037 84.272 496.869 80.384 500.517 77.696C504.261 75.008 508.629 73.664 513.621 73.664C520.629 73.664 526.341 76.304 530.757 81.584C535.173 86.864 537.381 94.208 537.381 103.616V152H515.925ZM629.98 154.016C622.876 154.016 616.54 152.336 610.972 148.976C605.5 145.616 601.228 140.912 598.156 134.864C595.084 128.816 593.548 121.808 593.548 113.84C593.548 105.776 595.084 98.72 598.156 92.672C601.324 86.624 605.692 81.968 611.26 78.704C616.828 75.344 623.164 73.664 630.268 73.664C637.468 73.664 643.804 75.344 649.276 78.704C654.844 81.968 659.164 86.624 662.236 92.672C665.404 98.624 666.988 105.68 666.988 113.84C666.988 114.896 666.94 115.904 666.844 116.864C666.844 117.824 666.844 118.832 666.844 119.888H605.5V105.488H651.004L645.1 113.84C645.1 105.776 643.804 100.064 641.212 96.704C638.716 93.344 635.068 91.664 630.268 91.664C625.852 91.664 622.3 93.392 619.612 96.848C616.924 100.208 615.58 105.872 615.58 113.84C615.58 121.328 616.972 126.848 619.756 130.4C622.54 133.952 626.38 135.728 631.276 135.728C634.444 135.728 637.18 135.008 639.484 133.568C641.884 132.032 643.564 129.728 644.524 126.656L664.972 131.84C663.148 138.464 659.26 143.84 653.308 147.968C647.356 152 639.58 154.016 629.98 154.016ZM726.374 152V108.224C726.374 103.136 725.126 99.296 722.63 96.704C720.23 94.016 717.11 92.672 713.27 92.672C709.43 92.672 706.262 94.016 703.766 96.704C701.366 99.296 700.166 103.136 700.166 108.224H696.422C696.422 100.832 697.478 94.592 699.59 89.504C701.702 84.32 704.678 80.384 708.518 77.696C712.454 75.008 717.062 73.664 722.342 73.664C727.334 73.664 731.75 74.864 735.59 77.264C739.43 79.664 742.406 83.12 744.518 87.632C746.726 92.144 747.83 97.568 747.83 103.904V152H726.374ZM678.71 152V75.68H700.166V152H678.71ZM793.181 154.016C784.829 154.016 778.205 151.616 773.309 146.816C768.509 142.016 766.109 134.816 766.109 125.216V59.84L787.565 55.664V122.768C787.565 126.608 788.573 129.536 790.589 131.552C792.605 133.472 795.437 134.432 799.085 134.432C800.813 134.432 802.397 134.288 803.837 134C805.373 133.616 806.909 133.232 808.445 132.848V152C806.237 152.672 803.885 153.152 801.389 153.44C798.989 153.824 796.253 154.016 793.181 154.016ZM756.605 93.392V75.68H807.725V93.392H756.605ZM850.902 154.016C843.798 154.016 837.462 152.336 831.894 148.976C826.422 145.616 822.15 140.912 819.078 134.864C816.006 128.816 814.47 121.808 814.47 113.84C814.47 105.776 816.006 98.72 819.078 92.672C822.246 86.624 826.614 81.968 832.182 78.704C837.75 75.344 844.086 73.664 851.19 73.664C858.39 73.664 864.726 75.344 870.198 78.704C875.766 81.968 880.086 86.624 883.157 92.672C886.326 98.624 887.91 105.68 887.91 113.84C887.91 114.896 887.862 115.904 887.766 116.864C887.766 117.824 887.766 118.832 887.766 119.888H826.422V105.488H871.926L866.022 113.84C866.022 105.776 864.726 100.064 862.134 96.704C859.638 93.344 855.99 91.664 851.19 91.664C846.774 91.664 843.222 93.392 840.534 96.848C837.846 100.208 836.502 105.872 836.502 113.84C836.502 121.328 837.894 126.848 840.678 130.4C843.462 133.952 847.302 135.728 852.198 135.728C855.366 135.728 858.102 135.008 860.406 133.568C862.806 132.032 864.486 129.728 865.446 126.656L885.894 131.84C884.07 138.464 880.182 143.84 874.23 147.968C868.278 152 860.502 154.016 850.902 154.016ZM899.632 152V75.68H921.088V152H899.632ZM918.208 117.728C918.208 108.8 919.072 101.072 920.8 94.544C922.528 87.92 925.36 82.784 929.296 79.136C933.232 75.488 938.512 73.664 945.136 73.664V98.288H934.912C930.496 98.288 927.088 99.344 924.688 101.456C922.288 103.568 921.088 107.408 921.088 112.976L918.208 117.728Z" fill="#323232"/>
</g>
<defs>
<clipPath id="clip0_1_63">
<rect width="150" height="205" fill="white"/>
</clipPath>
<clipPath id="clip1_1_63">
<rect width="721" height="128" fill="white" transform="translate(225 52)"/>
</clipPath>
</defs>
</svg>
